<svg width="10" height="11" viewBox="0 0 10 11" fill="none" xmlns="http://www.w3.org/2000/svg">
<path d="M5.43054 2.89855L5.75454 3.65637C5.77651 3.72227 5.83691 3.76071 5.89732 3.7662L6.72104 3.84308C6.89677 3.85955 6.96266 4.07372 6.83636 4.18904L6.21582 4.7327C6.1664 4.77663 6.14443 4.84252 6.16091 4.90293L6.34213 5.71018C6.38057 5.88041 6.19935 6.01221 6.04559 5.92434L5.33719 5.5015C5.28228 5.46855 5.21089 5.46855 5.15597 5.5015L4.44757 5.92434C4.2993 6.01221 4.11259 5.88041 4.15103 5.71018L4.33225 4.90293C4.34873 4.84252 4.32676 4.77663 4.27734 4.7327L3.6568 4.18904C3.52501 4.07372 3.5964 3.85955 3.77212 3.84308L4.59584 3.7662C4.66174 3.76071 4.71665 3.72227 4.74411 3.66186L5.06811 2.90404C5.13401 2.73929 5.35916 2.73929 5.43054 2.89855Z" stroke="#F0C932" stroke-width="0.549146" stroke-miterlimit="10" stroke-linecap="round" stroke-linejoin="round"/>
<path d="M8.98207 4.5047C8.99626 2.44236 7.33591 0.759 5.27357 0.744807C3.21123 0.730613 1.52787 2.39096 1.51368 4.4533C1.49948 6.51564 3.15983 8.19901 5.22217 8.2132C7.28451 8.22739 8.96787 6.56704 8.98207 4.5047Z" stroke="#F0C932" stroke-width="0.549146" stroke-miterlimit="10" stroke-linecap="round" stroke-linejoin="round"/>
<path d="M4.73861 8.17596L3.81055 10.5098L2.63538 9.16442L0.861633 9.32917L2.03681 6.38574" stroke="#F0C932" stroke-width="0.549146" stroke-miterlimit="10" stroke-linecap="round" stroke-linejoin="round"/>
<path d="M5.74905 8.17596L6.6826 10.5098L7.85228 9.16442L9.63152 9.32917L8.45085 6.38574" stroke="#F0C932" stroke-width="0.549146" stroke-miterlimit="10" stroke-linecap="round" stroke-linejoin="round"/>
</svg>
